/* XPM */
static char * pointset_xpm[] = {
"16 16 6 1",
" 	c None",
".	c #FFFFFF",
"+	c #947C7C",
"@	c #000000",
"#	c #4B4242",
"$	c #D5C9C9",
"................",
"................",
"................",
"................",
"...++...@@......",
"...++...@@......",
"................",
".....@@.........",
".....@@..##.....",
".........##.....",
"....$$..........",
"....$$..........",
"................",
"................",
"................",
"................"};
